The Adjustment Bureau *2011*[BluRay][1080p][ENG, POL]

General information:
Country: USA
Release: 26 February 2011 (Belgrade Film Festival)
Genre:  Romance, Sci-Fi, Thriller
Director: George Nolfi
Screenplay: George Nolfi
Original Music: Thomas Newman
Cinematography by: John Toll
Duration: 1h 45mn
Language: English, Polish
Subtitles: English, Polish
Rating=6.6 - 8101 votes

Cast:
Matt Damon ...David Norris
Emily Blunt ...Elise Sellas
Florence Kastriner ...Suburban Mom
Phyllis MacBryde ...Suburban Neighbor
Natalie Carter ...Suburban Neighbor (as Natalie E. Carter)
Chuck Scarborough ...Himself
Jon Stewart ...Himself
Gregory P. Hitchen ...U.S. Coast Guard Officer (as Capt. Gregory P. Hitchen)
Darrell Lenormand ...Upstate Farmer
Kar...Political Consultant
Michael Kelly ...Charlie Traynor
RJ Konner ...Political Consultant
Susan D. Michaels ...Reporter
Anthony Mackie ...Harry Mitchell
Gregory Lay ...Albert, Campaign Aide

Plot:
The affair between a politician and a ballerina is affected by mysterious forces keeping the lovers apart.

Specifications:
General
Format                           : Matroska
Format version                   : Version 2
Overall bit rate                 : 14.0 Mbps

Video
Format                           : AVC
Format/Info                      : Advanced Video Codec
Format profile                   : High@L4.1
Format settings, CABAC           : Yes
Format settings, ReFrames        : 4 frames
Muxing mode                      : Header stripping
Codec ID                         : V_MPEG4/ISO/AVC
Bit rate mode                    : Variable
Bit rate                         : 12.0 Mbps
Maximum bit rate                 : 40.0 Mbps
Width                            : 1 920 pixels
Height                           : 1 040 pixels
Display aspect ratio             : 16:9
Frame rate                       : 23.976 fps

Audio 1
Format                           : DTS
Format/Info                      : Digital Theater Systems
Muxing mode                      : Header stripping
Codec ID                         : A_DTS
Bit rate mode                    : Constant
Bit rate                         : 1 510 Kbps
Channel(s)                       : 6 channels
Channel positions                : Front: L C R, Side: L R, LFE
Sampling rate                    : 48.0 KHz
Bit depth                        : 24 bits
Compression mode                 : Lossy
Stream size                      : 1.12 GiB (11%)
Title                            : English
Language                         : English

Audio 2
Format                           : AC-3
Format/Info                      : Audio Coding 3
Mode extension                   : CM (complete main)
Muxing mode                      : Header stripping
Codec ID                         : A_AC3
Bit rate mode                    : Constant
Bit rate                         : 448 Kbps
Channel(s)                       : 6 channels
Channel positions                : Front: L C R, Side: L R, LFE
Sampling rate                    : 48.0 KHz
Bit depth                        : 16 bits
Compression mode                 : Lossy
Stream size                      : 339 MiB (3%)
Title                            : Polish
Language                         : Polish

Text 1
Format                           : UTF-8
Codec ID                         : S_TEXT/UTF8
Codec ID/Info                    : UTF-8 Plain Text
Title                            : English
Language                         : English

Text 2
Format                           : UTF-8
Codec ID                         : S_TEXT/UTF8
Codec ID/Info                    : UTF-8 Plain Text
Title                            : Polish
Language                         : Polish
